<svg xmlns="http://www.w3.org/2000/svg" width="22.984" height="23.449" viewBox="0 0 22.984 23.449">
    <defs>
        <clipPath id="prefix__clip-path">
            <path id="prefix__長方形_1123" d="M0 0H22.984V23.449H0z" data-name="長方形 1123" style="fill:none"/>
        </clipPath>
        <style>
            .prefix__cls-3{fill:#fff}
        </style>
    </defs>
    <g id="prefix__アートワーク_18" data-name="アートワーク 18" transform="translate(11.492 11.724)">
        <g id="prefix__グループ_1576" data-name="グループ 1576" transform="translate(-11.492 -11.724)">
            <path id="prefix__パス_1353" d="M12.705 3.284a8.385 8.385 0 0 1 5.765 2.3l-2.07.744 6.364 5.341 1.446-8.186-2.346.849A11.729 11.729 0 0 0 1.6 7.851l3.144 1.073a8.385 8.385 0 0 1 7.961-5.64" class="prefix__cls-3" data-name="パス 1353" transform="translate(-1.201 .06)"/>
            <path id="prefix__パス_1354" d="M11.5 55.385a8.385 8.385 0 0 1-5.765-2.3l2.071-.749L1.447 47 0 55.186l2.346-.849a11.729 11.729 0 0 0 20.414-4.093l-3.194-.923a8.435 8.435 0 0 1-8.066 6.064" class="prefix__cls-3" data-name="パス 1354" transform="translate(0 -35.271)"/>
        </g>
    </g>
</svg>
